<?xml version="1.0" encoding="UTF-8" standalone="no"?>
<!-- Created with Inkscape (http://www.inkscape.org/) -->

<svg
   xmlns:dc="http://purl.org/dc/elements/1.1/"
   xmlns:cc="http://creativecommons.org/ns#"
   xmlns:rdf="http://www.w3.org/1999/02/22-rdf-syntax-ns#"
   xmlns:svg="http://www.w3.org/2000/svg"
   xmlns="http://www.w3.org/2000/svg"
   xmlns:sodipodi="http://sodipodi.sourceforge.net/DTD/sodipodi-0.dtd"
   xmlns:inkscape="http://www.inkscape.org/namespaces/inkscape"
   id="svg3055"
   version="1.1"
   inkscape:version="0.48.5 r10040"
   width="836"
   height="397"
   sodipodi:docname="RobinSymbol3.svg">
  <metadata
     id="metadata3061">
    <rdf:RDF>
      <cc:Work
         rdf:about="">
        <dc:format>image/svg+xml</dc:format>
        <dc:type
           rdf:resource="http://purl.org/dc/dcmitype/StillImage" />
        <dc:title></dc:title>
      </cc:Work>
    </rdf:RDF>
  </metadata>
  <defs
     id="defs3059" />
  <sodipodi:namedview
     pagecolor="#ffffff"
     bordercolor="#666666"
     borderopacity="1"
     objecttolerance="10"
     gridtolerance="10"
     guidetolerance="10"
     inkscape:pageopacity="0"
     inkscape:pageshadow="2"
     inkscape:window-width="1183"
     inkscape:window-height="725"
     id="namedview3057"
     showgrid="false"
     inkscape:zoom="1.7305508"
     inkscape:cx="278.69036"
     inkscape:cy="184.73552"
     inkscape:window-x="78"
     inkscape:window-y="0"
     inkscape:window-maximized="0"
     inkscape:current-layer="svg3055" />
  <path
     style="fill:none;stroke:#000000;stroke-width:1px;stroke-linecap:butt;stroke-linejoin:miter;stroke-opacity:1"
     d="M 156.90323,367.58065 C 100.53272,348.08495 53.598138,305.52361 22.135269,255.63412 -3.7461131,205.2105 11.518483,139.37675 55.612974,104.19995 79.15616,82.275731 106.63309,64.013984 137.29032,53.774194 c -1.29863,45.367128 49.11836,64.546316 81.84955,84.086436 41.50644,19.46894 88.56632,29.53882 134.34245,26.16845 35.08798,-2.43329 34.01354,-47.66678 51.72761,-69.076443 9.90435,-9.459176 5.39423,-11.632 8.86591,-22.199138 4.82817,11.27576 1.06013,12.367222 10.00564,20.528936 12.02048,9.233515 13.55097,69.607185 51.57239,71.169175 49.77929,0.36117 85.98285,-5.95283 131.67166,-22.64936 18.28467,-5.97438 52.48161,-21.85965 69.60005,-32.2018 26.41459,-14.957819 38.54443,-34.48986 39.32504,-55.622841 51.3459,26.9675 110.41293,85.096061 108.28467,148.048141 0.26695,47.89677 -30.20866,89.54521 -68.4081,115.74298 -21.83776,15.25019 -50.98594,35.67832 -74.18541,47.68746 38.10679,-27.82828 81.56215,-64.66627 80.68595,-116.18385 -4.01939,-36.32036 -32.48927,-68.3185 -68.00639,-76.77359 -45.07998,-12.467 -82.58418,-1.88474 -120.46306,6.83287 -53.22989,19.56447 -112.40172,58.36006 -149.58497,101.71287 -2.15093,22.39101 -2.27986,23.0554 -3.50312,39.14777 -1.15959,11.98251 -2.31919,23.96501 -3.47879,35.94752 -2.72402,-25.33333 -5.44803,-50.66667 -8.17205,-76 -25.66916,-22.53302 -49.42582,-47.55164 -76.35772,-68.44354 -34.65259,-23.67923 -73.49296,-41.40024 -115.32082,-47.05713 -49.80327,-8.03042 -109.13774,7.47872 -136.807865,52.4466 -23.514905,44.03488 4.62235,95.74277 40.523195,123.44619 11.34882,9.61199 23.43634,18.29534 35.44709,27.04875 z"
     id="path3065"
     inkscape:connector-curvature="0"
     sodipodi:nodetypes="cccccccccccccccccccccccccccc" />
</svg>
